<svg width="51" height="39" viewBox="0 0 51 39" fill="none" xmlns="http://www.w3.org/2000/svg">
<rect width="50.1677" height="37.1581" transform="translate(0.65625 0.9375)" fill="white"/>
<path d="M15.5985 30.8836H8.39791V15.6602H15.5985V30.8836ZM11.9943 13.5835C9.69181 13.5835 7.82422 12.3315 7.82422 10.8198C7.82422 10.0937 8.26357 9.39734 9.04562 8.88391C9.82766 8.37047 10.8883 8.08203 11.9943 8.08203C13.1003 8.08203 14.161 8.37047 14.943 8.88391C15.7251 9.39734 16.1644 10.0937 16.1644 10.8198C16.1644 12.3315 14.2961 13.5835 11.9943 13.5835ZM42.548 30.8836H35.3629V23.4729C35.3629 21.7068 35.3086 19.4418 31.6192 19.4418C27.8755 19.4418 27.3018 21.3607 27.3018 23.3457V30.8836H20.1089V15.6602H27.0149V17.7368H27.1157C28.077 16.5407 30.4253 15.2784 33.9287 15.2784C41.2161 15.2784 42.5557 18.429 42.5557 22.5211V30.8836H42.548Z" fill="black"/>
</svg>
